<svg width="22" height="22" viewBox="0 0 22 22" fill="none" xmlns="http://www.w3.org/2000/svg">
<path d="M9.49189 8.58377C8.99931 8.58377 8.6 8.98497 8.6 9.47987C8.6 9.97477 8.99931 10.376 9.49189 10.376H10.0865V13.9604C10.0865 15.2801 11.1513 16.35 12.4649 16.35H13.2081C13.7007 16.35 14.1 15.9488 14.1 15.4539C14.1 14.959 13.7007 14.5578 13.2081 14.5578H12.4649C12.1365 14.5578 11.8703 14.2903 11.8703 13.9604V10.2266C11.8703 9.3193 11.1382 8.58377 10.2351 8.58377H9.49189Z" fill="currentColor"/>
<path fill-rule="evenodd" clip-rule="evenodd" d="M10.6068 4.85C9.90894 4.85 9.34324 5.41837 9.34324 6.11948C9.34324 6.8206 9.90894 7.38896 10.6068 7.38896C11.3046 7.38896 11.8703 6.8206 11.8703 6.11948C11.8703 5.41837 11.3046 4.85 10.6068 4.85Z" fill="currentColor"/>
<path d="M11 0C4.91979 0 0 4.92022 0 11C0 17.0802 4.92022 22 11 22C17.0802 22 22 17.0798 22 11C22 4.91979 17.0797 0 11 0ZM11 20.2812C5.86983 20.2812 1.71875 16.1298 1.71875 11C1.71875 5.86983 5.87018 1.71875 11 1.71875C16.1302 1.71875 20.2812 5.87018 20.2812 11C20.2812 16.1302 16.1298 20.2812 11 20.2812Z" fill="currentColor"/>
</svg>
